<?xml version="1.0" encoding="UTF-8"?>
<svg xmlns="http://www.w3.org/2000/svg" version="1.1" viewBox="0 0 419.53 595.28">
  <!-- Generator: Adobe Illustrator 30.3.0, SVG Export Plug-In . SVG Version: 2.1.3 Build 182)  -->
  <defs>
    <style>
      .st0 {
        font-family: modernlinesRegular, 'modern lines';
        font-size: 24px;
        letter-spacing: .1em;
        stroke: #231f20;
        stroke-miterlimit: 10;
        stroke-width: .5px;
      }

      .st0, .st1, .st2 {
        fill: none;
      }

      .st1 {
        stroke-width: 3px;
      }

      .st1, .st2 {
        stroke: #010101;
        stroke-linecap: round;
        stroke-linejoin: round;
      }

      .st2 {
        stroke-width: 8px;
      }
    </style>
  </defs>
  <g id="thin_type">
    <text class="st0" transform="translate(134.54 472.47)"><tspan x="0" y="0">with complements</tspan></text>
  </g>
  <g id="logo_type">
    <path id="pathID" class="st1" d="M73.58,433.39c-2.1.4-5,.7-7.2.4-4-.6-6.2-2.2-7.3-6-.4-1.4-.6-2.9-.6-4.5v-47.2M72.68,389.79h-23.4M86.08,409.29h32.4s.2-7.2-.3-10.4c-.7-4.4-3.2-7.3-7.2-8.9-3.9-1.5-8-1.7-12.2-1.1-1.8.2-3.6.6-5.3,1.3-5.1,2-7.2,6-7.4,11.2-.1,2.5,0,10.1,0,10.1,0,0-.4,8.7.6,12,1.2,4.3,3.9,7.3,8.1,8.9,2.2.8,4.5,1.4,6.9,1.5,0,0,4.8.3,8,0,2.2-.2,6.3-.4,8.9-.8M134.48,389.39v44.4M157.48,389.59c-1.6-.3-4-.6-5.6-.1-1.5.4-2.7,1.5-3.8,2.4l-13.5,12M170.48,389.39v44.4M193.38,389.59c-1.6-.3-4-.6-5.6-.1-1.5.4-2.7,1.5-3.8,2.4l-13.5,12M233.18,433.79v-23.7s.2-7.5-.3-11.2c-.8-5.4-4.1-8.4-9.2-9.6-3-.7-5.9-.6-9-.4-3.2.2-6.4.4-9.6.7M233.18,409.69c-6,.1-12.7.3-18.7.7-3.3.2-6.4.8-9.1,2.7-4,2.8-5,8.5-3.7,13s5.4,7.4,9.9,7.9c2.5.3,4.9-.3,7-1.5,2.5-1.4,14.6-9.7,14.6-9.7M248.78,401.69h25.2c3.2,0,6.1-.9,8.5-3,2.7-2.4,3.9-5.5,3.9-9v-7.9c-.1-3.6-1.3-6.7-3.9-9-2.4-2.1-5.3-3-8.5-3h-25.2v64M297.08,409.49h32.4s.2-7.2-.3-10.4c-.7-4.4-3.2-7.3-7.2-8.9-3.9-1.5-8-1.7-12.2-1.1-1.8.2-3.6.6-5.3,1.3-5.1,2-7.2,6-7.4,11.2-.1,2.5,0,10.1,0,10.1,0,0-.4,8.7.6,12,1.2,4.3,3.9,7.3,8.1,8.9,2.2.8,4.5,1.4,6.9,1.5,0,0,4.8.3,8,0,2.2-.2,6.3-.4,8.9-.8M345.48,389.39v44.4M378.08,433.79v-23.9s0-7.6-.3-11.2c-.3-3.1-1.9-5.9-4.5-7.6-1.5-1-3.2-1.7-4.9-2-1.6-.3-3.3-.3-4.9-.1-1.5.2-2.8,1.1-4.1,1.9l-9.9,6.6-4.1,2.6"/>
  </g>
  <g id="Logo">
    <g id="TP-Logo.afdesign">
      <g id="logoPathID">
        <path class="st2" d="M164.49,167.31l24.62,14.17v56.83l24.62,14.17v28.42l-24.62-14.17v42.58c0,8.81,4.66,16.93,12.35,21.33l12.27,7.08v28.42l-24.62-14.17c-6.74-3.89-13.99-10.54-18.4-18.22-4.49-7.86-6.22-16.76-6.22-24.36v-56.75l-24.62-14.17v-28.42l24.62,14.17v-56.92l79.98-46.12c4.06-2.33,8.72-2.07,12.27,0l24.62,14.17c3.54,2.07,6.13,5.87,6.13,10.62v78.17c0,4.41-1.12,8.55-3.28,12.27-2.07,3.63-5.18,6.74-8.98,8.98l-61.5,35.5v14.17c0,8.81,4.66,17.02,12.35,21.42l12.27,7.08v28.42l-24.62,14.17-24.62-14.17c-6.74-3.89-13.99-10.54-18.4-18.22-4.49-7.86-6.22-16.76-6.22-24.36v-56.75l-24.62-14.17v-28.42l24.62-14.17v14.17l-12.27-7.08,12.27-7.08v-28.59l12.27-7.08,24.62,14.17v56.83l24.62,14.17v28.5l-12.27,7.08-12.27-7.08v28.33c0,8.81,4.66,16.93,12.35,21.33l12.27,7.08v28.33l12.27-7.08v-28.42l-12.27-7.08c-7.6-4.41-12.35-12.52-12.35-21.42v-14.17l24.62-14.17v-28.42l-24.62-14.08v-56.83l-24.62-14.17,12.27-7.08,24.62,14.17v28.42l-12.27,7.08v28.42l12.35-7.17,24.62,14.17-.09.09v28.33l12.27-7.08v-28.33l-27.9-16.15c-2.07,3.63-5.18,6.74-8.9,8.9l-12.44,7.17v-28.42l24.62-14.17v-28.42l-24.53-14.17,12.27-7.08,24.62,14.17v30.23c-2.07,0-4.15.52-6.13,1.64l-6.22,3.63v14.25c0,4.32-1.12,8.55-3.28,12.18l27.9,16.15v-35.76c-.09-9.33-10.28-15.12-18.4-10.45l-6.22,3.63v14.25l24.62,14.17v-14.34l-24.62-14.17,6.22-3.63c8.12-4.66,18.22,1.12,18.4,10.45v-49.49l-24.62-14.17,6.13-3.54c4.06-2.33,8.72-2.07,12.27,0l18.48,10.62.09,113.58"/>
      </g>
    </g>
  </g>
</svg>