<?xml version="1.0" encoding="UTF-8" standalone="no"?><!DOCTYPE svg PUBLIC "-//W3C//DTD SVG 1.1//EN" "http://www.w3.org/Graphics/SVG/1.1/DTD/svg11.dtd"><svg width="100%" height="100%" viewBox="0 0 842 596" version="1.1" xmlns="http://www.w3.org/2000/svg" xmlns:xlink="http://www.w3.org/1999/xlink" xml:space="preserve" xmlns:serif="http://www.serif.com/" style="fill-rule:evenodd;clip-rule:evenodd;stroke-linecap:round;stroke-linejoin:round;stroke-miterlimit:1.5;"><path d="M166.531,122.399c0,0 2.341,11.036 8.695,1.003c6.354,-10.033 10.311,-20.957 4.348,-25.082c-5.964,-4.125 -32.774,-5.797 -40.131,0.334c-7.357,6.131 -9.851,25.712 -4.013,36.452c5.908,10.869 23.213,27.808 39.462,28.761c18.059,1.059 56.393,13.631 68.891,-22.406c10.101,-29.125 -34.334,-75.134 -62.537,-85.947c-28.203,-10.813 -93.659,-11.905 -106.681,21.069c-17.191,43.53 5.462,94.977 75.246,125.744c20.82,9.18 56.901,5.894 74.577,0c35.221,-11.744 41.803,-40.465 41.803,-40.465" style="fill:none;stroke:url(#_Linear1);stroke-width:4.4px;"/><defs><linearGradient id="_Linear1" x1="0" y1="0" x2="1" y2="0" gradientUnits="userSpaceOnUse" gradientTransform="matrix(197.117087,0,0,159.310708,69.072857,128.389674)"><stop offset="0" style="stop-color:#000;stop-opacity:1"/><stop offset="1" style="stop-color:#fff;stop-opacity:1"/></linearGradient></defs></svg>