<svg id="Layer_1" data-name="Layer 1" xmlns="http://www.w3.org/2000/svg" viewBox="113 285 797 190">
  <defs>
    <style>
      .cls-1 {
        fill: none;
        stroke: currentColor;
        stroke-miterlimit: 10;
        stroke-width: 8px;
      }
    </style>
  </defs>
  <g>
    <path class="cls-1" d="M173.09,421.77c-4.1.71-9.75,1.3-13.89.71-7.84-1.13-11.97-4.26-14.12-11.55-.82-2.79-1.08-5.71-1.08-8.64,0-30.48,0-60.95,0-91.43"/>
    <line class="cls-1" x1="171.37" y1="337.32" x2="125.93" y2="337.32"/>
  </g>
  <path class="cls-1" d="M197.19,375.04l62.83-.02s.31-14.04-.66-20.17c-1.37-8.6-6.22-14.15-13.99-17.22-7.58-2.99-15.51-3.22-23.56-2.22-3.53.44-6.93,1.12-10.21,2.44-9.79,3.93-13.98,11.64-14.38,21.74-.19,4.8-.03,19.65-.03,19.65,0,0-.69,16.86,1.07,23.31,2.29,8.4,7.53,14.21,15.7,17.28,4.3,1.62,8.7,2.79,13.35,2.94,0,0,9.29.49,15.46.02,4.29-.33,12.12-.68,17.27-1.64"/>
  <path class="cls-1" d="M835.19,375.04l62.83-.02s.31-14.04-.66-20.17c-1.37-8.6-6.22-14.15-13.99-17.22-7.58-2.99-15.51-3.22-23.56-2.22-3.53.44-6.93,1.12-10.21,2.44-9.79,3.93-13.98,11.64-14.38,21.74-.19,4.8-.03,19.65-.03,19.65,0,0-.69,16.86,1.07,23.31,2.29,8.4,7.53,14.21,15.7,17.28,4.3,1.62,8.7,2.79,13.35,2.94,0,0,9.29.49,15.46.02,4.29-.33,12.12-.68,17.27-1.64"/>
  <g>
    <line class="cls-1" x1="291.02" y1="336.53" x2="291.01" y2="422.48"/>
    <path class="cls-1" d="M335.5,336.87c-3.14-.55-7.8-1.1-10.87-.26-2.85.78-5.22,2.81-7.45,4.66l-26.17,23.27"/>
  </g>
  <g>
    <line class="cls-1" x1="360.65" y1="336.53" x2="360.65" y2="422.48"/>
    <path class="cls-1" d="M405.13,336.87c-3.14-.55-7.8-1.1-10.87-.26-2.85.78-5.22,2.81-7.45,4.66l-26.17,23.27"/>
  </g>
  <g>
    <path class="cls-1" d="M482.11,422.48v-45.91s.42-14.52-.62-21.7c-1.52-10.47-7.91-16.34-17.84-18.54-5.81-1.28-11.43-1.11-17.34-.82s-12.37.74-18.53,1.33"/>
    <path class="cls-1" d="M482.1,375.76c-11.59.13-24.59.67-36.17,1.3-6.34.35-12.4,1.5-17.68,5.26-7.73,5.51-9.73,16.49-7.19,25.2,2.55,8.76,10.39,14.33,19.27,15.33,4.78.53,9.4-.59,13.55-2.96,4.78-2.72,28.22-18.85,28.22-18.85"/>
  </g>
  <path class="cls-1" d="M512.43,360.31l48.77.07"/>
  <path class="cls-1" d="M648.56,379.19s.16,14.85-.03,19.65c-.4,10.1-4.59,17.81-14.38,21.74-2.4.97-4.88,1.59-7.42,2.03-1.69.29-3.4.41-5.12.41h-8.93c-1.71,0-3.43-.12-5.12-.41-2.54-.44-5.01-1.06-7.42-2.03-9.79-3.93-13.98-11.64-14.38-21.74-.19-4.8-.03-19.65-.03-19.65v-8.51s-.16-6.38.03-11.18c.4-10.1,4.59-17.81,14.38-21.74,2.4-.97,4.88-1.59,7.42-2.03,1.69-.29,3.4-.41,5.12-.41h8.93c1.71,0,3.43.12,5.12.41,2.54.44,5.01,1.06,7.42,2.03,9.79,3.93,13.98,11.64,14.38,21.74.19,4.8.03,11.18.03,11.18v8.51Z"/>
  <line class="cls-1" x1="679.55" y1="336.53" x2="679.55" y2="422.48"/>
  <path class="cls-1" d="M724.03,336.87c-3.14-.55-7.8-1.1-10.87-.26-2.85.78-5.22,2.81-7.45,4.66l-26.17,23.27"/>
  <path class="cls-1" d="M577.68,298.47l-40.86.05-6.79-.04c-2.26-.01-4.52.24-6.67.92-5.14,1.61-8.13,4.79-9.84,10.62-.82,2.79-1.08,5.71-1.08,8.64,0,30.48,0,75.43,0,105.91"/>
  <g>
    <path class="cls-1" d="M807.42,398.84c-.4,10.1-4.59,17.81-14.38,21.74-2.4.97-4.88,1.59-7.42,2.03-1.69.29-3.4.41-5.12.41h-8.93c-1.71,0-3.43-.12-5.12-.41-2.54-.44-5.01-1.06-7.42-2.03-9.79-3.93-13.98-11.64-14.38-21.74-.19-4.8-.03-19.65-.03-19.65v-8.51s-.16-6.38.03-11.18c.4-10.1,4.59-17.81,14.38-21.74,2.4-.97,4.88-1.59,7.42-2.03,1.69-.29,3.4-.41,5.12-.41h8.93c1.71,0,3.43.12,5.12.41,2.54.44,5.01,1.06,7.42,2.03,9.79,3.93,13.98,11.64,14.38,21.74"/>
    <path class="cls-1" d="M807.5,336.18v85.95s.43,14.52-.62,21.7c-1.52,10.47-7.91,16.34-17.84,18.54-5.81,1.28-11.43,1.11-17.34.82s-12.37-.74-18.53-1.33"/>
  </g>
</svg>
