<?xml version="1.0" encoding="UTF-8" standalone="no"?>
<!DOCTYPE svg PUBLIC "-//W3C//DTD SVG 1.1//EN" "http://www.w3.org/Graphics/SVG/1.1/DTD/svg11.dtd">
<svg width="100%" height="100%" viewBox="0 0 100 100" version="1.1" xmlns="http://www.w3.org/2000/svg" xmlns:xlink="http://www.w3.org/1999/xlink" xml:space="preserve" xmlns:serif="http://www.serif.com/" style="fill-rule:evenodd;clip-rule:evenodd;stroke-linecap:round;stroke-linejoin:round;">
    <g transform="matrix(4.166667,0,0,4.166667,0,0)">
        <g id="Vertical" transform="matrix(0,1,-1,0,23.635601,-0.657572)">
            <g transform="matrix(0.707107,0.707107,-0.707107,0.707107,10.834283,0.977607)">
                <path d="M20,10L14,10L14,4" style="fill:none;fill-rule:nonzero;stroke:currentColor;stroke-width:2px;"/>
            </g>
            <g transform="matrix(0.618254,0.707107,-0.618254,0.707107,13.606921,0.977607)">
                <path d="M3,21L10,14" style="fill:none;fill-rule:nonzero;stroke:currentColor;stroke-width:2px;"/>
            </g>
            <g transform="matrix(0.618254,0.707107,-0.618254,0.707107,24.924105,0.977607)">
                <path d="M3,21L10,14" style="fill:none;fill-rule:nonzero;stroke:currentColor;stroke-width:2px;"/>
            </g>
            <g transform="matrix(0.707107,0.707107,-0.707107,0.707107,13.962334,0.977607)">
                <path d="M4,14L10,14L10,20" style="fill:none;fill-rule:nonzero;stroke:currentColor;stroke-width:2px;"/>
            </g>
            <g transform="matrix(-0.707107,-0.707107,0.707107,-0.707107,25.279517,22.324366)">
                <path d="M20,10L14,10L14,4" style="fill:none;fill-rule:nonzero;stroke:currentColor;stroke-width:2px;"/>
            </g>
            <g transform="matrix(-0.618254,-0.707107,0.618254,-0.707107,0.00534,22.324366)">
                <path d="M3,21L10,14" style="fill:none;fill-rule:nonzero;stroke:currentColor;stroke-width:2px;"/>
            </g>
            <g transform="matrix(-0.618254,-0.707107,0.618254,-0.707107,11.189695,22.324366)">
                <path d="M3,21L10,14" style="fill:none;fill-rule:nonzero;stroke:currentColor;stroke-width:2px;"/>
            </g>
            <g transform="matrix(-0.707107,-0.707107,0.707107,-0.707107,-0.350072,22.324366)">
                <path d="M4,14L10,14L10,20" style="fill:none;fill-rule:nonzero;stroke:currentColor;stroke-width:2px;"/>
            </g>
        </g>
    </g>
</svg>

