<?xml version="1.0" encoding="UTF-8" standalone="no"?><!DOCTYPE svg PUBLIC "-//W3C//DTD SVG 1.1//EN" "http://www.w3.org/Graphics/SVG/1.1/DTD/svg11.dtd"><svg width="100%" height="100%" viewBox="0 0 666 1204" version="1.1" xmlns="http://www.w3.org/2000/svg" xmlns:xlink="http://www.w3.org/1999/xlink" xml:space="preserve" xmlns:serif="http://www.serif.com/" style="fill-rule:evenodd;clip-rule:evenodd;stroke-linecap:round;stroke-linejoin:round;"><path d="M125.833,237.559l118.75,68.75l0,274.167l118.75,68.75l0,137.083l-118.75,-68.75l0,205.417c0,42.5 22.5,81.667 59.583,102.917l59.167,34.167l0,137.083l-118.75,-68.75c-32.5,-18.75 -67.5,-50.833 -88.75,-87.917c-21.667,-37.917 -30,-80.833 -30,-117.917l0,-274.167l-118.75,-68.75l0,-137.083l118.75,68.75l0,-274.167l385.833,-222.917c19.583,-11.25 42.083,-10 59.167,0l59.167,34.167c17.5,10 29.583,28.75 29.583,51.25l0,102.5l-296.667,171.667l0,137.083l148.333,-85.833c19.583,-11.25 42.083,-10 59.167,0l59.167,34.167c17.5,10 29.583,28.75 29.583,51.25l0,102.5l-296.667,171.667l0,68.333c0,42.5 22.917,82.083 59.583,103.333l59.167,34.167l0,137.083l-118.75,68.75l-118.75,-68.75c-32.5,-18.75 -67.5,-50.833 -88.75,-87.917c-21.667,-37.917 -30,-80.833 -30,-117.917l0,-274.167l-118.75,-68.75l0,-137.083l118.75,68.75l0,-137.083l-118.75,68.75l118.75,68.75l0,-68.75l-59.167,-34.167l59.167,-34.167l0,-137.083l59.167,-34.167l118.75,68.75l0,274.167l118.75,68.75l0,137.083l-59.167,34.167l0,68.333c0,42.5 22.917,82.083 59.583,103.333l59.167,34.167l0,137.083l-59.167,34.167l0,-137.083l-59.167,-34.167c-36.667,-21.25 -59.583,-60.417 -59.583,-102.917l0,-136.667l59.583,34.167l118.75,-68.75l0,-137.083l-118.75,-68.75l0,-274.167l-118.75,-68.75l59.167,-34.167l118.75,68.75l0,137.083l-59.167,34.167l0,137.083l63.75,-36.667l114.583,71.667l0,136.667l59.583,-34.167l0,-137.083l-118.75,-68.333l-118.75,68.75l0,-137.083l118.75,-68.333l0,-137.5l-118.75,-68.75l59.167,-34.167l118.75,68.75l0,137.083l59.167,-34.167l0,-137.083l-118.75,-68.75" style="fill:none;fill-rule:nonzero;stroke:#000;stroke-width:12.5px;"/></svg>